<svg xmlns="http://www.w3.org/2000/svg" width="128" height="128" viewBox="0 0 128 128">

<circle cx="102" cy="26" r="16" fill="#f2c14e"/>
<path d="M0 84 q32 -34 64 -12 q32 22 64 -8 v64 h-128 z" fill="#8bc34a"/>
<path d="M0 100 q40 -20 80 0 q24 12 48 -2 v30 h-128 z" fill="#6aa84f"/>
<g fill="#2e7d32">
<circle cx="30" cy="80" r="14"/><circle cx="42" cy="72" r="12"/><circle cx="20" cy="70" r="10"/>
<circle cx="86" cy="94" r="14"/><circle cx="98" cy="86" r="12"/><circle cx="76" cy="84" r="10"/>
</g>
<rect x="29" y="88" width="5" height="16" fill="#5d4037"/><rect x="85" y="102" width="5" height="16" fill="#5d4037"/>
<g fill="#d32f2f">
<circle cx="26" cy="76" r="3.5"/><circle cx="38" cy="70" r="3.5"/><circle cx="34" cy="82" r="3.5"/><circle cx="20" cy="68" r="3"/>
<circle cx="82" cy="90" r="3.5"/><circle cx="94" cy="84" r="3.5"/><circle cx="90" cy="96" r="3.5"/><circle cx="76" cy="82" r="3"/>
</g>
</svg>
